<?xml version="1.0" encoding="UTF-8"?>
<svg xmlns="http://www.w3.org/2000/svg" viewBox="106 80 810 810">
<g transform="translate(0,1024) scale(0.1,-0.1)" fill="#ffffff">
<path d="M4130 7088 l0 -88 -1362 0 c-926 0 -1375 -3 -1401 -11 -40 -11 -77
-56 -77 -95 0 -26 68 -140 131 -219 26 -33 85 -97 132 -142 433 -416 1234
-742 2107 -857 102 -14 529 -56 563 -56 26 0 138 -113 177 -178 48 -81 70
-163 70 -257 0 -233 -153 -446 -465 -647 -168 -107 -657 -383 -920 -517 -77
-40 -150 -83 -162 -97 -23 -25 -23 -25 -23 -400 l0 -376 29 -29 29 -29 550 0
549 0 39 27 c112 77 147 98 239 143 253 122 493 198 781 247 135 22 579 25
709 4 421 -67 780 -201 1039 -386 l48 -35 545 0 545 0 29 30 30 29 -3 380 c-3
365 -4 381 -23 400 -11 10 -99 60 -195 111 -434 230 -782 441 -950 576 -231
186 -351 459 -296 673 78 305 378 544 950 757 242 91 605 193 884 249 216 43
294 77 369 158 92 100 119 194 129 442 8 201 0 239 -54 265 -22 11 -461 14
-2384 14 l-2358 1 0 -87z m4628 -230 c-6 -179 -24 -241 -85 -300 -51 -48 -81
-62 -193 -86 -52 -12 -159 -35 -237 -52 -610 -133 -1119 -324 -1453 -545 -213
-142 -372 -311 -435 -465 -114 -279 -46 -551 199 -795 45 -45 110 -102 146
-127 148 -105 553 -342 810 -474 l95 -49 -352 -3 -353 -2 -69 34 c-38 19 -106
68 -152 108 -200 174 -354 281 -536 372 -342 171 -656 213 -988 132 -285 -70
-552 -224 -840 -486 -55 -50 -127 -106 -161 -125 l-61 -35 -364 0 c-356 0
-363 0 -334 18 17 10 117 64 223 120 215 114 550 309 657 383 296 204 446 430
448 674 1 110 -14 177 -61 275 -46 98 -189 243 -304 310 l-78 45 0 612 0 613
2241 0 2242 0 -5 -152z m-4673 -538 l0 -515 -45 3 c-110 7 -468 54 -595 77
-783 144 -1455 444 -1825 815 -54 53 -103 106 -109 118 l-12 22 1293 -2 1293
-3 0 -515z m1606 -1876 c306 -53 592 -209 882 -484 l97 -92 0 -213 0 -214 -83
38 c-110 52 -329 125 -479 161 -232 55 -326 65 -633 65 -244 -1 -297 -4 -409
-23 -229 -40 -443 -101 -632 -182 -63 -28 -118 -50 -120 -50 -2 0 -4 94 -4
208 l0 209 98 94 c126 123 206 189 317 262 173 114 362 192 536 221 117 19
315 19 430 0z m-1746 -919 l0 -270 -442 -3 -443 -2 0 268 c0 148 3 272 7 275
3 4 203 6 442 5 l436 -3 0 -270z m3945 0 l0 -275 -445 0 -445 0 0 268 c0 148
3 272 7 275 3 4 204 7 445 7 l438 0 0 -275z"/>
</g>
</svg>
